<?xml version="1.0" encoding="UTF-8" standalone="no"?>
<!-- Created with Inkscape (http://www.inkscape.org/) -->

<svg
   width="127.99999"
   height="127.99999"
   viewBox="0 0 33.866664 33.866664"
   version="1.1"
   id="svg1"
   inkscape:export-filename="boshuchu.png"
   inkscape:export-xdpi="96"
   inkscape:export-ydpi="96"
   xmlns:inkscape="http://www.inkscape.org/namespaces/inkscape"
   xmlns:sodipodi="http://sodipodi.sourceforge.net/DTD/sodipodi-0.dtd"
   xmlns:xlink="http://www.w3.org/1999/xlink"
   xmlns="http://www.w3.org/2000/svg"
   xmlns:svg="http://www.w3.org/2000/svg">
  <sodipodi:namedview
     id="namedview1"
     pagecolor="#ffffff"
     bordercolor="#000000"
     borderopacity="0.25"
     inkscape:showpageshadow="2"
     inkscape:pageopacity="0.0"
     inkscape:pagecheckerboard="0"
     inkscape:deskcolor="#d1d1d1"
     inkscape:document-units="px" />
  <defs
     id="defs1">
    <linearGradient
       id="linearGradient7"
       inkscape:collect="always">
      <stop
         style="stop-color:#fdfffd;stop-opacity:1;"
         offset="0"
         id="stop7" />
      <stop
         style="stop-color:#12ad12;stop-opacity:1;"
         offset="1"
         id="stop8" />
    </linearGradient>
    <radialGradient
       inkscape:collect="always"
       xlink:href="#linearGradient7"
       id="radialGradient11"
       cx="6.6694288"
       cy="5.4503446"
       fx="6.6694288"
       fy="5.4503446"
       r="16.008417"
       gradientUnits="userSpaceOnUse"
       gradientTransform="matrix(0,1.0374743,-1,0,12.119773,-1.4690163)" />
  </defs>
  <g
     inkscape:label="Layer 1"
     inkscape:groupmode="layer"
     id="layer1">
    <circle
       style="fill:#006f00;fill-opacity:1;stroke:none;stroke-width:1.32292;stroke-dasharray:none"
       id="path11"
       cx="16.933332"
       cy="16.933332"
       r="16.933332" />
    <circle
       style="fill:#12ad12;fill-opacity:1;stroke:url(#radialGradient11);stroke-width:1.2138;stroke-dasharray:none"
       id="path1"
       cy="16.933332"
       cx="16.933332"
       r="15.401517" />
    <path
       id="path10-1"
       style="fill:#006f00;fill-opacity:1;stroke:none;stroke-width:1.72873;stroke-dasharray:none"
       d="m 16.933333,3.9811523 a 4.3529973,4.3529973 0 0 0 -4.353223,4.3532225 4.3529973,4.3529973 0 0 0 2.57452,3.9703002 4.2653236,3.3878648 0 0 0 -2.48667,3.078882 v 15.271936 h 8.530746 V 15.383557 a 4.2653236,3.3878648 0 0 0 -2.48667,-3.078882 4.3529973,4.3529973 0 0 0 2.57452,-3.9703002 4.3529973,4.3529973 0 0 0 -4.353223,-4.3532225 z" />
    <path
       id="path10-1-9"
       style="fill:#006f00;fill-opacity:1;stroke:none;stroke-width:1.28606;stroke-dasharray:none"
       d="M 8.8495971,7.0113406 A 3.2383485,3.2383485 0 0 0 5.6110807,10.249856 3.2383485,3.2383485 0 0 0 7.5263571,13.203503 3.1731249,2.5203523 0 0 0 5.6764355,15.493992 V 26.855325 H 12.022759 V 15.493992 A 3.1731249,2.5203523 0 0 0 10.172837,13.203503 3.2383485,3.2383485 0 0 0 12.088113,10.249856 3.2383485,3.2383485 0 0 0 8.8495971,7.0113406 Z" />
    <path
       id="path10-1-9-0"
       style="fill:#006f00;fill-opacity:1;stroke:none;stroke-width:1.28606;stroke-dasharray:none"
       d="m 25.017069,7.0113405 a 3.2383485,3.2383485 0 0 0 -3.238516,3.2385165 3.2383485,3.2383485 0 0 0 1.915276,2.953647 3.1731249,2.5203523 0 0 0 -1.849921,2.290489 v 11.361333 h 6.346323 V 15.493993 a 3.1731249,2.5203523 0 0 0 -1.849922,-2.290489 3.2383485,3.2383485 0 0 0 1.915276,-2.953647 3.2383485,3.2383485 0 0 0 -3.238516,-3.2385165 z" />
  </g>
</svg>
