<?xml version="1.0" encoding="UTF-8" standalone="no"?>
<!-- Created with Inkscape (http://www.inkscape.org/) -->

<svg
   width="127.99999"
   height="128"
   viewBox="0 0 33.866664 33.866667"
   version="1.1"
   id="svg1"
   xml:space="preserve"
   inkscape:export-filename="magic_knight.png"
   inkscape:export-xdpi="96"
   inkscape:export-ydpi="96"
   xmlns:inkscape="http://www.inkscape.org/namespaces/inkscape"
   xmlns:sodipodi="http://sodipodi.sourceforge.net/DTD/sodipodi-0.dtd"
   xmlns="http://www.w3.org/2000/svg"
   xmlns:svg="http://www.w3.org/2000/svg"><sodipodi:namedview
     id="namedview1"
     pagecolor="#505050"
     bordercolor="#ffffff"
     borderopacity="1"
     inkscape:showpageshadow="0"
     inkscape:pageopacity="0"
     inkscape:pagecheckerboard="1"
     inkscape:deskcolor="#505050"
     inkscape:document-units="mm"
     inkscape:zoom="3.0954419"
     inkscape:cx="37.474456"
     inkscape:cy="75.271967"
     inkscape:window-width="1520"
     inkscape:window-height="928"
     inkscape:window-x="-8"
     inkscape:window-y="-8"
     inkscape:window-maximized="1"
     inkscape:current-layer="layer1" /><defs
     id="defs1" /><g
     inkscape:label="Layer 1"
     inkscape:groupmode="layer"
     id="layer1"><g
       style="opacity:1"
       id="g1"
       transform="matrix(-0.14841645,0.14841645,-0.09838595,-0.09838595,78.273403,-16.440836)"><g
         id="g2"
         transform="matrix(0.21405342,0,0,0.21405342,262.14371,156.96411)"
         style="fill:#ffff80;fill-opacity:1;stroke:#804080;stroke-width:74.7477;stroke-dasharray:none;stroke-opacity:1;paint-order:stroke markers fill">
	<path
   class="st0"
   d="m 117.031,135.614 c 16.126,-5.296 34.316,-9.976 53.698,-12.755 9.491,-1.362 19.275,-2.363 28.927,-2.602 4.82,-0.177 9.546,-0.115 14.194,0.093 4.326,0.169 10.584,0.685 15.78,1.131 21.683,1.993 43.437,5.604 63.312,11.731 19.906,6.15 38.179,15.041 51.797,26.58 13.964,11.793 22.5,26.064 23.893,39.719 0.747,7.005 -0.323,13.841 -3.226,19.691 -0.716,1.493 -1.532,2.902 -2.47,4.264 -0.901,1.386 -1.901,2.532 -3.456,4.295 -2.879,3.256 -5.92,6.358 -9.238,9.214 -13.563,11.754 -30.552,19.551 -48.648,22.846 -18.412,3.495 -37.479,2.379 -52.82,-1.494 -15.426,-3.794 -26.388,-10.452 -30.398,-15.887 -2.04,-2.686 -2.878,-4.98 -2.694,-7.466 0.092,-1.24 0.478,-2.525 1.047,-3.864 l 1.147,-1.971 0.847,-1.478 c 1.208,-1.817 4.342,-4.087 6.628,-5.58 2.524,-1.601 4.718,-2.825 6.928,-3.872 4.35,-2.094 8.183,-3.41 9.098,-5.666 0.901,-2.024 -1.531,-4.98 -9.675,-6.404 -8.383,-1.2 -21.415,-0.661 -36.425,6.482 -1.94,0.947 -3.772,2.071 -5.596,3.326 -1.67,1.047 -3.24,2.263 -4.857,3.533 -3.156,2.625 -6.196,5.75 -8.637,9.353 -5.096,7.296 -6.958,16.611 -4.472,25.309 5.235,18.205 24.548,32.576 49.88,41.774 25.687,9.26 58.725,13.101 92.756,7.628 33.03,-5.073 63.52,-19.722 83.702,-38.45 4.926,-4.465 9.237,-9.175 13.148,-13.956 1.802,-2.216 4.064,-5.096 5.797,-7.974 1.762,-2.833 3.279,-5.727 4.495,-8.668 4.857,-11.423 5.726,-23.208 3.833,-34.516 -3.702,-21.584 -17.766,-41.944 -38.441,-58.402 -19.936,-15.887 -45.539,-27.603 -71.441,-35.231 -25.848,-7.621 -52.498,-11.685 -77.699,-13.717 -6.62,-0.5 -12.124,-0.909 -19.444,-1.162 -7.058,-0.231 -13.987,-0.208 -20.707,0.1 -13.586,0.539 -26.441,2.032 -38.657,4.01 -25.002,4.041 -47.232,10.43 -66.46,17.635 -40.751,15.456 -66.907,34.7 -80.162,49.172 -14.088,15.435 -14.965,24.926 -8.276,26.004 7.19,1.216 18.675,-6.028 37.064,-17.104 17.566,-10.554 42.152,-24.494 75.928,-35.671 z"
   style="fill:#ffff80;fill-opacity:1;stroke:#804080;stroke-width:74.7477;stroke-dasharray:none;stroke-opacity:1;paint-order:stroke markers fill"
   id="path1" />
	<path
   class="st0"
   d="m 503.263,259.583 c -13.486,-3.009 -21.43,32.861 -84.172,64.89 -16.611,8.506 -36.81,16.673 -60.11,23.123 -24.078,6.535 -50.804,11.439 -77.945,10.654 -30.166,-0.515 -61.219,-4.049 -89.306,-12.655 -27.911,-8.452 -51.966,-21.899 -67.123,-39.842 -14.671,-17.243 -19.751,-37.333 -15.61,-55.514 1.955,-8.729 5.966,-16.981 11.608,-23.924 2.733,-3.456 5.904,-6.512 9.276,-9.299 4.303,-3.441 8.69,-6.628 13.162,-9.53 17.404,-11.407 36.31,-18.366 54.637,-21.168 17.92,-2.802 35.733,-1.701 49.973,1.67 14.31,3.325 24.886,9.114 29.166,13.963 2.224,2.463 3.218,4.565 3.34,6.844 0.031,1.123 -0.123,2.324 -0.592,3.564 -0.585,1.293 -1.116,2.517 -1.601,3.333 -0.932,1.724 -3.794,3.979 -5.958,5.442 -2.348,1.601 -4.503,2.848 -6.628,3.902 -4.334,2.179 -8.159,3.518 -9.044,5.873 -0.87,2.163 1.724,5.312 10.26,6.72 4.226,0.685 9.906,0.669 16.065,-0.378 6.251,-1.139 12.57,-2.84 19.722,-7.036 1.685,-0.978 3.318,-2.239 4.749,-3.418 1.401,-1.062 2.656,-2.317 3.941,-3.587 2.502,-2.579 4.673,-5.635 6.158,-9.053 3.049,-6.689 2.702,-14.787 -1.17,-21.999 -7.682,-14.164 -25.356,-24.917 -46.878,-31.837 -21.46,-6.843 -48.994,-10.238 -78.799,-7.29 -30.667,2.856 -63.258,13.278 -90.008,28.481 -6.997,3.934 -13.732,8.152 -20.19,12.616 -7.498,5.242 -14.302,10.977 -20.083,17.058 -12.039,12.47 -20.26,26.233 -25.163,40.473 -10.345,30.213 -5.05,62.596 16.011,90.685 22.184,29.805 59.464,51.104 100.368,63.22 41.343,12.408 84.28,15.903 123.776,14.979 41.829,-0.677 78.538,-10.291 108.69,-21.314 29.15,-10.846 52.997,-23.9 71.725,-37.479 35.44,-25.432 51.527,-53.051 55.268,-72.094 3.631,-18.258 -1.403,-28.88 -7.515,-30.073 z"
   style="fill:#ffff80;fill-opacity:1;stroke:#804080;stroke-width:74.7477;stroke-dasharray:none;stroke-opacity:1;paint-order:stroke markers fill"
   id="path2" />
</g></g><g
       style="opacity:1;fill:#d580ff;fill-opacity:1;stroke:#804080;stroke-width:70.8087;stroke-dasharray:none;stroke-opacity:1;paint-order:stroke markers fill"
       id="g3"
       transform="matrix(0.05207056,0,0,0.05202559,11.931218,11.690058)"><g
         id="g5"
         style="fill:#d580ff;fill-opacity:1;stroke:#804080;stroke-width:70.8087;stroke-dasharray:none;stroke-opacity:1;paint-order:stroke markers fill"
         transform="matrix(0.82727169,-0.17287762,-0.17257913,0.82727169,-13.075301,-10.639125)">
	<path
   class="st0"
   d="m 150.037,428.586 c 1.781,4.797 3.529,9.878 5.267,15.189 L 312.887,399.53 299.84,386.493 Z"
   style="fill:#d580ff;fill-opacity:1;stroke:#804080;stroke-width:70.8087;stroke-dasharray:none;stroke-opacity:1;paint-order:stroke markers fill"
   id="path1-4" />
	<path
   class="st0"
   d="m 386.406,298.43 13.026,13.026 43.676,-155.485 c -5.496,-1.781 -10.501,-3.53 -15.221,-5.234 z"
   style="fill:#d580ff;fill-opacity:1;stroke:#804080;stroke-width:70.8087;stroke-dasharray:none;stroke-opacity:1;paint-order:stroke markers fill"
   id="path2-0" />
	<path
   class="st0"
   d="m 109.409,129.22 c 2.93,-3.321 5.956,-6.567 9.059,-9.746 3.737,-3.672 7.606,-7.179 11.54,-10.589 L 83.993,62.87 120.238,48.194 c 2.972,-1.179 4.874,-4.109 4.721,-7.299 -0.142,-3.169 -2.272,-5.945 -5.322,-6.884 L 10.429,0.332 C 7.741,-0.487 4.845,0.234 2.868,2.212 0.89,4.19 0.158,7.096 0.999,9.773 l 33.668,109.208 c 0.929,3.059 3.682,5.18 6.872,5.322 3.192,0.131 6.12,-1.738 7.322,-4.677 L 63.536,83.337 Z"
   style="fill:#d580ff;fill-opacity:1;stroke:#804080;stroke-width:70.8087;stroke-dasharray:none;stroke-opacity:1;paint-order:stroke markers fill"
   id="path3" />
	<path
   class="st0"
   d="M 339.878,318.755 190.402,169.28 c -2.983,2.623 -5.889,5.333 -8.731,8.152 l -2.272,2.328 -2.71,2.656 c -2.348,2.371 -4.621,4.786 -6.84,7.233 l 149.551,149.573 -3.956,40.136 61.543,61.543 7.726,-56.833 56.854,-7.736 -61.553,-61.532 z"
   style="fill:#d580ff;fill-opacity:1;stroke:#804080;stroke-width:70.8087;stroke-dasharray:none;stroke-opacity:1;paint-order:stroke markers fill"
   id="path4" />
	<path
   class="st0"
   d="m 500.903,85.522 c -13.921,-13.932 -36.584,-13.932 -50.505,0 -2.699,2.688 -4.918,5.747 -6.622,9.135 -6.982,-0.405 -16.752,-4.459 -23.046,-7.07 l -10.13,-3.78 c -3.584,-1.378 -7.409,-2.754 -11.058,-3.989 -31.34,-10.545 -62.439,-16.314 -92.424,-17.177 -32.892,-1.038 -65.783,4.25 -95.068,15.309 -29.701,11.036 -58.057,29.253 -82.086,52.746 -23.429,23.953 -41.633,52.32 -52.67,81.978 -11.059,29.328 -16.347,62.22 -15.32,95.089 0.853,30.006 6.644,61.105 17.188,92.456 1.236,3.628 2.612,7.452 3.967,11.004 l 3.868,10.348 c 2.547,6.131 6.601,15.877 7.005,22.87 -3.387,1.705 -6.459,3.923 -9.146,6.612 -13.921,13.921 -13.921,36.584 0,50.505 13.921,13.922 36.584,13.922 50.506,0 7.408,-7.408 11.156,-17.548 10.359,-27.974 l 0.044,-0.239 -0.087,-0.832 c -0.306,-2.961 -0.82,-5.551 -1.301,-7.824 -0.743,-3.825 -1.737,-7.223 -2.688,-10.502 l -0.798,-2.742 c -2.534,-8.086 -5.278,-15.691 -7.9,-22.772 l -12.053,-31.668 c -1.202,-3.256 -2.262,-6.326 -3.344,-9.649 -8.807,-26.444 -12.829,-53.228 -11.999,-79.584 0.896,-26.674 6.95,-53.02 17.55,-76.186 10.25,-22.423 24.466,-42.825 42.266,-60.614 l 2.536,-2.492 2.36,-2.415 c 17.8,-17.789 38.191,-32.017 60.625,-42.245 23.166,-10.621 49.5,-16.686 76.163,-17.56 26.38,-0.841 53.15,3.19 79.606,11.988 3.311,1.082 6.393,2.153 9.583,3.311 l 31.778,12.107 c 7.037,2.6 14.654,5.354 22.882,7.934 l 2.579,0.754 c 3.288,0.94 6.687,1.934 10.403,2.667 2.381,0.491 4.983,1.016 7.889,1.31 l 1.006,0.077 0.142,-0.032 c 10.403,0.787 20.554,-2.962 27.94,-10.359 13.922,-13.921 13.922,-36.585 0,-50.495 z"
   style="fill:#d580ff;fill-opacity:1;stroke:#804080;stroke-width:70.8087;stroke-dasharray:none;stroke-opacity:1;paint-order:stroke markers fill"
   id="path5" />
</g></g></g><style
     type="text/css"
     id="style1">
	.st0{fill:#4B4B4B;}
</style><style
     type="text/css"
     id="style1-5">
	.st0{fill:#4B4B4B;}
</style></svg>
