<svg width="653" height="658" xmlns="http://www.w3.org/2000/svg" xmlns:xlink="http://www.w3.org/1999/xlink" xml:space="preserve" overflow="hidden"><defs><clipPath id="clip0"><path d="M2300.55 462.36 2076.43 850.556 1870.89 731.89 2095.02 343.694Z" fill-rule="evenodd" clip-rule="evenodd"/></clipPath><clipPath id="clip1"><path d="M2300.55 462.36 2076.43 850.556 1870.89 731.89 2095.02 343.694Z" fill-rule="evenodd" clip-rule="evenodd"/></clipPath><clipPath id="clip2"><path d="M2300.55 462.36 2076.43 850.556 1870.89 731.89 2095.02 343.694Z" fill-rule="evenodd" clip-rule="evenodd"/></clipPath><clipPath id="clip3"><path d="M1971.45 837.663 2239.57 373.256 2522.05 536.346 2253.93 1000.75Z" fill-rule="evenodd" clip-rule="evenodd"/></clipPath><clipPath id="clip4"><path d="M1971.45 837.663 2239.57 373.256 2522.05 536.346 2253.93 1000.75Z" fill-rule="evenodd" clip-rule="evenodd"/></clipPath><clipPath id="clip5"><path d="M1971.45 837.663 2239.57 373.256 2522.05 536.346 2253.93 1000.75Z" fill-rule="evenodd" clip-rule="evenodd"/></clipPath><clipPath id="clip6"><path d="M2106.57 606.828 2379.44 457.5 2386.56 768.476 2113.69 917.8Z" fill-rule="evenodd" clip-rule="evenodd"/></clipPath><clipPath id="clip7"><path d="M2106.57 606.828 2379.44 457.5 2386.56 768.476 2113.69 917.8Z" fill-rule="evenodd" clip-rule="evenodd"/></clipPath><clipPath id="clip8"><path d="M2106.57 606.828 2379.44 457.5 2386.56 768.476 2113.69 917.8Z" fill-rule="evenodd" clip-rule="evenodd"/></clipPath></defs><g transform="translate(-1870 -343)"><g clip-path="url(#clip0)"><g clip-path="url(#clip1)"><g clip-path="url(#clip2)"><path d="M54.2485 62.8624C61.7235 60.4075 70.1553 58.2382 79.1396 56.95 83.5391 56.3187 88.0744 55.8547 92.5484 55.7439 94.7827 55.6618 96.9734 55.6906 99.1279 55.787 101.133 55.8653 104.034 56.1045 106.443 56.3112 116.494 57.2351 126.577 58.9089 135.79 61.749 145.017 64.5998 153.488 68.7211 159.8 74.0699 166.273 79.5364 170.23 86.1516 170.875 92.4812 171.222 95.7283 170.726 98.8971 169.38 101.609 169.048 102.301 168.67 102.954 168.235 103.585 167.818 104.228 167.354 104.759 166.633 105.576 165.299 107.086 163.889 108.523 162.351 109.847 156.064 115.296 148.189 118.91 139.801 120.437 131.266 122.057 122.428 121.54 115.317 119.745 108.166 117.986 103.085 114.9 101.226 112.381 100.28 111.135 99.8918 110.072 99.9771 108.92 100.02 108.345 100.199 107.749 100.462 107.129L100.994 106.215 101.387 105.53C101.947 104.688 103.399 103.635 104.459 102.943 105.629 102.201 106.646 101.634 107.67 101.148 109.687 100.178 111.464 99.5678 111.888 98.5221 112.305 97.5839 111.178 96.2137 107.403 95.5536 103.517 94.9973 97.4763 95.2472 90.5186 98.5582 89.6193 98.9972 88.7701 99.5182 87.9246 100.1 87.1505 100.585 86.4228 101.149 85.6732 101.738 84.2103 102.954 82.8011 104.403 81.6696 106.073 79.3074 109.455 78.4443 113.773 79.5967 117.805 82.0233 126.244 90.9757 132.905 102.718 137.169 114.625 141.461 129.939 143.242 145.714 140.705 161.025 138.353 175.158 131.563 184.513 122.882 186.797 120.812 188.795 118.629 190.608 116.412 191.443 115.385 192.492 114.05 193.295 112.716 194.112 111.403 194.815 110.061 195.379 108.698 197.63 103.403 198.033 97.9403 197.155 92.6986 195.439 82.6936 188.92 73.2559 179.336 65.627 170.095 58.2627 158.227 52.8319 146.221 49.296 134.239 45.7634 121.886 43.8796 110.204 42.9377 107.136 42.7059 104.584 42.5163 101.191 42.399 97.9195 42.292 94.7076 42.3026 91.5926 42.4454 85.295 42.6952 79.3362 43.3873 73.6736 44.3042 62.0842 46.1773 51.7797 49.1389 42.8667 52.4787 23.977 59.6432 11.8527 68.5635 5.70849 75.2719-0.821856 82.4266-1.22838 86.826 1.87224 87.3257 5.20509 87.8894 10.5288 84.5315 19.0529 79.3974 27.1954 74.5052 38.592 68.0434 54.2485 62.8624Z" stroke="#7030A0" stroke-width="6.08544" fill="#FFEF1D" transform="matrix(-0.944351 1.63566 -0.866025 -0.5 2300.55 462.36)"/><path d="M233.282 120.327C227.031 118.932 223.349 135.559 194.265 150.406 186.565 154.349 177.202 158.135 166.402 161.124 155.241 164.154 142.852 166.427 130.271 166.063 116.288 165.824 101.894 164.186 88.8744 160.197 75.9366 156.279 64.7861 150.046 57.7603 141.729 50.9597 133.736 48.6049 124.423 50.5244 115.996 51.4306 111.949 53.2899 108.124 55.9052 104.906 57.172 103.304 58.6419 101.887 60.205 100.595 62.1996 99.0005 64.2331 97.5231 66.3061 96.178 74.3735 90.8904 83.1372 87.6646 91.6325 86.3658 99.9391 85.0669 108.196 85.5773 114.797 87.1399 121.43 88.6811 126.333 91.3646 128.317 93.6123 129.347 94.754 129.808 95.7283 129.865 96.7847 129.879 97.3053 129.808 97.862 129.59 98.4368 129.319 99.0361 129.073 99.6035 128.848 99.9818 128.416 100.781 127.09 101.826 126.086 102.504 124.998 103.246 123.999 103.825 123.014 104.313 121.005 105.323 119.232 105.944 118.822 107.035 118.419 108.038 119.621 109.498 123.578 110.15 125.537 110.468 128.17 110.461 131.025 109.975 133.922 109.447 136.851 108.659 140.166 106.714 140.948 106.26 141.704 105.676 142.368 105.129 143.017 104.637 143.599 104.055 144.195 103.467 145.354 102.271 146.361 100.855 147.049 99.2702 148.462 96.1696 148.302 92.4159 146.507 89.0728 142.946 82.5073 134.753 77.5228 124.777 74.3151 114.829 71.1431 102.066 69.5694 88.2505 70.9359 74.0351 72.2598 58.9279 77.0908 46.5282 84.138 43.2849 85.9615 40.1629 87.9168 37.1694 89.986 33.6938 92.4159 30.5398 95.0743 27.8601 97.8931 22.2796 103.673 18.4688 110.053 16.1961 116.654 11.4008 130.659 13.8552 145.67 23.6178 158.69 33.901 172.506 51.1817 182.379 70.1423 187.995 89.3064 193.747 109.209 195.367 127.517 194.938 146.907 194.624 163.923 190.168 177.9 185.058 191.412 180.031 202.466 173.98 211.147 167.685 227.575 155.897 235.032 143.094 236.766 134.267 238.449 125.804 236.115 120.88 233.282 120.327Z" stroke="#7030A0" stroke-width="6.08544" fill="#FFEF1D" transform="matrix(-0.944351 1.63566 -0.866025 -0.5 2300.55 462.36)"/></g></g></g><g clip-path="url(#clip3)"><g clip-path="url(#clip4)"><g clip-path="url(#clip5)"><g clip-path="url(#clip6)"><g clip-path="url(#clip7)"><g clip-path="url(#clip8)"><path d="M1320.92 326.468C1319.97 328.546 1318.92 330.702 1317.79 332.927L1381.51 368.71 1381.51 360.474 1320.92 326.468Z" fill="#4E95D9" transform="matrix(0.822017 -1.42378 0.866025 0.5 823.941 2540.84)"/><path d="M1436.64 360.001 1436.64 368.227 1499.52 332.927C1498.35 330.629 1497.32 328.496 1496.37 326.468L1436.64 360.001Z" fill="#4E95D9" transform="matrix(0.822017 -1.42378 0.866025 0.5 823.941 2540.84)"/><path d="M1402.61 219.126C1404.58 219.002 1406.56 218.933 1408.55 218.91 1410.89 218.929 1413.22 219.044 1415.53 219.209L1415.53 190.154 1431.61 196.964C1432.92 197.53 1434.45 197.205 1435.41 196.15 1436.36 195.104 1436.56 193.556 1435.9 192.296L1412.05 147.184C1411.46 146.077 1410.32 145.39 1409.07 145.39 1407.82 145.39 1406.68 146.077 1406.1 147.188L1382.25 192.296C1381.57 193.555 1381.77 195.094 1382.73 196.146 1383.7 197.195 1385.22 197.53 1386.52 196.981L1402.61 190.157 1402.61 219.126Z" fill="#4E95D9" transform="matrix(0.822017 -1.42378 0.866025 0.5 823.941 2540.84)"/><path d="M1415.53 351.73 1415.53 257.345C1413.76 257.232 1411.99 257.169 1410.2 257.161L1408.75 257.18 1407.06 257.163C1405.57 257.169 1404.09 257.215 1402.61 257.286L1402.61 351.726 1388.69 363.148 1388.69 402.01 1409.07 386.506 1429.46 402.012 1429.45 363.152 1415.53 351.73Z" fill="#4E95D9" transform="matrix(0.822017 -1.42378 0.866025 0.5 823.941 2540.84)"/><path d="M1540.01 328.931C1540.01 320.139 1532.86 312.984 1524.06 312.986 1522.36 312.984 1520.7 313.247 1519.09 313.78 1517.01 311.447 1515.21 307.083 1514.04 304.271L1512.04 299.88C1511.34 298.314 1510.57 296.67 1509.81 295.129 1503.24 281.905 1495.25 270.265 1486.05 260.525 1475.99 249.814 1463.94 241.099 1451.2 235.345 1438.34 229.452 1423.64 226.251 1408.63 226.082 1393.67 226.247 1378.97 229.457 1366.12 235.334 1353.37 241.103 1341.32 249.818 1331.27 260.519 1322.06 270.263 1314.07 281.909 1307.5 295.136 1306.75 296.673 1305.97 298.314 1305.28 299.863L1303.23 304.35C1302.1 307.091 1300.31 311.447 1298.22 313.782 1296.62 313.251 1294.95 312.982 1293.25 312.984 1284.46 312.984 1277.31 320.139 1277.31 328.929 1277.31 337.719 1284.46 344.874 1293.25 344.874 1297.93 344.874 1302.31 342.856 1305.35 339.312L1305.44 339.251 1305.68 338.961C1306.52 337.93 1307.17 336.949 1307.74 336.08 1308.71 334.637 1309.47 333.251 1310.2 331.915L1310.82 330.798C1312.57 327.444 1314.1 324.178 1315.51 321.115L1321.71 307.311C1322.35 305.904 1322.99 304.599 1323.7 303.209 1329.26 292.079 1336.45 282.354 1345.03 274.294 1353.74 266.156 1363.97 259.749 1374.63 255.781 1384.94 251.938 1395.87 249.985 1407.11 249.989L1408.7 250.002 1410.2 249.985C1421.44 249.989 1432.37 251.934 1442.68 255.787 1453.35 259.749 1463.58 266.148 1472.27 274.29 1480.87 282.354 1488.05 292.079 1493.62 303.209 1494.32 304.595 1494.96 305.906 1495.6 307.28L1501.81 321.134C1503.21 324.176 1504.75 327.451 1506.53 330.863L1507.11 331.917C1507.85 333.251 1508.61 334.637 1509.55 336.042 1510.15 336.949 1510.8 337.936 1511.63 338.946L1511.92 339.289 1511.97 339.323C1515.01 342.856 1519.4 344.878 1524.07 344.874 1532.86 344.874 1540.01 337.719 1540.01 328.931Z" fill="#4E95D9" transform="matrix(0.822017 -1.42378 0.866025 0.5 823.941 2540.84)"/></g></g></g></g></g></g></g></svg>