<svg width="156" height="156" xmlns="http://www.w3.org/2000/svg" xmlns:xlink="http://www.w3.org/1999/xlink" xml:space="preserve" overflow="hidden"><defs><clipPath id="clip0"><path d="M673.81 68.7681 751.121 146.078 673.81 223.389 596.5 146.078Z" fill-rule="evenodd" clip-rule="evenodd"/></clipPath><clipPath id="clip1"><path d="M673.81 68.7681 751.121 146.078 673.81 223.389 596.5 146.078Z" fill-rule="evenodd" clip-rule="evenodd"/></clipPath><clipPath id="clip2"><path d="M673.81 68.7681 751.121 146.078 673.81 223.389 596.5 146.078Z" fill-rule="evenodd" clip-rule="evenodd"/></clipPath></defs><g transform="translate(-596 -68)"><g clip-path="url(#clip0)"><g clip-path="url(#clip1)"><g clip-path="url(#clip2)"><path d="M631.75 156.138C631.295 157.132 630.792 158.163 630.252 159.227L660.728 176.341 660.726 172.402 631.75 156.138Z" fill="#4E95D9"/><path d="M687.094 172.176 687.094 176.11 717.167 159.227C716.606 158.128 716.115 157.108 715.659 156.138L687.094 172.176Z" fill="#4E95D9"/><path d="M670.819 104.8C671.763 104.741 672.71 104.708 673.658 104.697 674.777 104.706 675.891 104.761 677 104.84L677 90.9439 684.689 94.2008C685.316 94.4715 686.045 94.3163 686.504 93.8115 686.961 93.3115 687.058 92.5708 686.74 91.9684L675.335 70.393C675.053 69.8634 674.507 69.535 673.909 69.5351 673.312 69.5351 672.763 69.8634 672.486 70.3946L661.079 91.9684C660.758 92.5706 660.853 93.3066 661.313 93.8097 661.775 94.3114 662.5 94.4714 663.125 94.2091L670.82 90.9454 670.819 104.8Z" fill="#4E95D9"/><path d="M677 168.22 677 123.079C676.153 123.025 675.305 122.995 674.45 122.991L673.756 123 672.946 122.992C672.233 122.995 671.525 123.017 670.821 123.051L670.817 168.218 664.16 173.681 664.16 192.267 673.908 184.852 683.661 192.268 683.657 173.683 677 168.22Z" fill="#4E95D9"/><path d="M736.532 157.316C736.533 153.111 733.111 149.689 728.905 149.69 728.092 149.689 727.295 149.815 726.526 150.07 725.533 148.954 724.67 146.867 724.114 145.522L723.155 143.422C722.822 142.673 722.452 141.887 722.088 141.15 718.948 134.825 715.123 129.258 710.726 124.6 705.916 119.477 700.151 115.309 694.059 112.557 687.908 109.739 680.875 108.208 673.7 108.127 666.545 108.206 659.513 109.741 653.368 112.552 647.27 115.311 641.505 119.479 636.697 124.597 632.295 129.257 628.474 134.827 625.332 141.153 624.971 141.888 624.601 142.673 624.269 143.414L623.291 145.56C622.75 146.871 621.89 148.954 620.895 150.071 620.126 149.817 619.328 149.688 618.516 149.689 614.312 149.689 610.89 153.111 610.89 157.315 610.89 161.519 614.312 164.941 618.516 164.941 620.753 164.941 622.85 163.976 624.304 162.281L624.347 162.252 624.459 162.113C624.86 161.62 625.174 161.151 625.444 160.735 625.91 160.045 626.273 159.382 626.624 158.743L626.918 158.209C627.756 156.605 628.49 155.043 629.163 153.578L632.125 146.976C632.435 146.303 632.739 145.679 633.077 145.014 635.74 139.691 639.177 135.04 643.282 131.185 647.445 127.293 652.338 124.229 657.436 122.331 662.37 120.493 667.597 119.559 672.971 119.561L673.73 119.567 674.451 119.559C679.825 119.561 685.052 120.491 689.984 122.334 695.086 124.229 699.978 127.289 704.136 131.183 708.246 135.04 711.68 139.691 714.346 145.014 714.682 145.677 714.986 146.304 715.293 146.961L718.263 153.587C718.933 155.042 719.667 156.608 720.52 158.24L720.796 158.744C721.15 159.382 721.514 160.045 721.964 160.717 722.249 161.151 722.563 161.623 722.957 162.106L723.098 162.27 723.124 162.286C724.576 163.976 726.675 164.943 728.907 164.941 733.111 164.941 736.533 161.519 736.532 157.316Z" fill="#4E95D9"/></g></g></g></g></svg>